<?xml version="1.0" encoding="utf-8"?>
<!-- Generator: Adobe Illustrator 18.0.0, SVG Export Plug-In . SVG Version: 6.00 Build 0)  -->
<!DOCTYPE svg PUBLIC "-//W3C//DTD SVG 1.1//EN" "http://www.w3.org/Graphics/SVG/1.1/DTD/svg11.dtd">
<svg version="1.1" id="Layer_1" xmlns="http://www.w3.org/2000/svg" xmlns:xlink="http://www.w3.org/1999/xlink" x="0px" y="0px"
	 viewBox="0 84 612 624" enable-background="new 0 84 612 624" xml:space="preserve">
<g>
	<g>
		<path d="M306,90C137.7,90,0,227.7,0,396s137.7,306,306,306s306-137.7,306-306S474.3,90,306,90z M306,663.8
			C156.8,663.8,38.2,545.2,38.2,396S156.8,128.2,306,128.2S573.8,246.8,573.8,396S455.2,663.8,306,663.8z"/>
	</g>
	<path d="M373.4,216.3H238.7c-12.4,0-22.4,10.4-22.4,23.1v323.7c0,0-0.7,8.3,3.4,11.5c4.1,3.3,14.9-2.5,14.9-2.5l71.5-55.2l72,55.6
		c0,0,8.3,4.3,13.3,1.1c4.1-1.9,4.5-10.4,4.5-10.4V239.4C395.8,226.7,385.8,216.3,373.4,216.3z"/>
</g>
</svg>
