<?xml version="1.0" encoding="utf-8"?>
<!-- Generator: Adobe Illustrator 18.0.0, SVG Export Plug-In . SVG Version: 6.00 Build 0)  -->
<!DOCTYPE svg PUBLIC "-//W3C//DTD SVG 1.1//EN" "http://www.w3.org/Graphics/SVG/1.1/DTD/svg11.dtd">
<svg version="1.1" id="Layer_1" xmlns="http://www.w3.org/2000/svg" xmlns:xlink="http://www.w3.org/1999/xlink" x="0px" y="0px"
	 viewBox="0 0 8.1 15.9" enable-background="new 0 0 8.1 15.9" xml:space="preserve">
<path d="M7.5,0h-6C0.9,0,0,0.3,0,0.9v14.4c0,0,0.2,0.4,0.4,0.5c0.2,0.1,0.8-0.1,0.8-0.1l3.2-2.5l3.2,2.5
	c0,0,0.1,0.2,0.4,0c0.2-0.1,0-0.5,0-0.5V0.9C8,0.3,8,0,7.5,0z M1,8.9l3-2l3,2v2l-3-2l-3,2V8.9z M4,12l-3,2.3v-2.4l3-2l3,2v2.4L4,12z
	 M7,7.9l-3-2l-3,2V1h6V7.9z"/>
</svg>
