<?xml version="1.0" encoding="utf-8"?>
<!-- Generator: Adobe Illustrator 18.0.0, SVG Export Plug-In . SVG Version: 6.00 Build 0)  -->
<!DOCTYPE svg PUBLIC "-//W3C//DTD SVG 1.1//EN" "http://www.w3.org/Graphics/SVG/1.1/DTD/svg11.dtd">
<svg version="1.1" id="Layer_1" xmlns="http://www.w3.org/2000/svg" xmlns:xlink="http://www.w3.org/1999/xlink" x="0px" y="0px"
	 viewBox="0 0 16 15" enable-background="new 0 0 16 15" xml:space="preserve">
<g>
	<path d="M14.6,1.4c-1.8-1.9-4.8-1.9-6.6,0c-1.8-1.9-4.8-1.9-6.6,0c-1.8,1.9-1.8,4.9,0,6.8L8,15l6.6-6.8
		C16.5,6.3,16.5,3.3,14.6,1.4z M13.8,7.3l-2.2,2.2L8,13.3L4.4,9.6L2.2,7.3l0,0c-1.3-1.4-1.4-3.7,0-5.1c1.4-1.4,3.6-1.4,5,0
		c0,0,0.8,0.8,0.8,0.8s0.8-0.8,0.8-0.8c1.4-1.4,3.6-1.4,5,0C15.2,3.7,15.2,5.9,13.8,7.3z"/>
	<path d="M11,3c-0.4,0-0.8,0.1-1.1,0.3l0.6,0.8C10.6,4.1,10.8,4,11,4c0.6,0,1,0.4,1,1c0,0.2,0,0.3-0.1,0.4l0.9,0.4
		C12.9,5.6,13,5.3,13,5C13,3.9,12.1,3,11,3z"/>
</g>
</svg>
