<?xml version="1.0" encoding="utf-8"?>
<!-- Generator: Adobe Illustrator 18.0.0, SVG Export Plug-In . SVG Version: 6.00 Build 0)  -->
<!DOCTYPE svg PUBLIC "-//W3C//DTD SVG 1.1//EN" "http://www.w3.org/Graphics/SVG/1.1/DTD/svg11.dtd">
<svg version="1.1" id="Layer_1" xmlns="http://www.w3.org/2000/svg" xmlns:xlink="http://www.w3.org/1999/xlink" x="0px" y="0px"
	 viewBox="0 0 16 16" enable-background="new 0 0 16 16" xml:space="preserve">
<g>
	<g>
		<path d="M8,0C3.6,0,0,3.6,0,8c0,4.4,3.6,8,8,8c4.4,0,8-3.6,8-8C16,3.6,12.4,0,8,0z M8,15c-3.9,0-7-3.1-7-7
			s3.1-7,7-7s7,3.1,7,7S11.9,15,8,15z M9.8,4.5c-1,0-1.5,0.8-1.8,0.8c-0.3,0-0.8-0.8-1.8-0.8C5,4.5,4,5.5,4,6.7
			c0,0.7,0.4,1.3,0.9,1.8L8,12l3.1-3.5C11.6,8.1,12,7.5,12,6.7C12,5.5,11,4.5,9.8,4.5z"/>
	</g>
</g>
</svg>
