<?xml version="1.0" encoding="utf-8"?>
<!-- Generator: Adobe Illustrator 18.0.0, SVG Export Plug-In . SVG Version: 6.00 Build 0)  -->
<!DOCTYPE svg PUBLIC "-//W3C//DTD SVG 1.1//EN" "http://www.w3.org/Graphics/SVG/1.1/DTD/svg11.dtd">
<svg version="1.1" id="Layer_1" xmlns="http://www.w3.org/2000/svg" xmlns:xlink="http://www.w3.org/1999/xlink" x="0px" y="0px"
	 viewBox="0 0 16 16" enable-background="new 0 0 16 16" xml:space="preserve">
<g>
	<g>
		<path d="M7.8,6.7c-0.6-0.3-0.6-1,0.4-1.1c0.8,0,1.6,0.2,2.1,0.4c0,0,0.3-1.4,0.4-1.7C9.9,4.2,9.3,4.1,8.7,4V3.1
			H7.3v1C5.7,4.4,5.1,5.6,5.1,6.4c0,2,2.4,2.4,3.1,2.7c0.8,0.4,0.7,1-0.1,1.1c-0.8,0.2-1.9-0.2-2.6-0.5L5,11.4
			c0.7,0.4,1.6,0.6,2.2,0.7V13h1.5v-1C10,11.8,11,11,11,9.6C11,7.8,9.1,7.3,7.8,6.7z M8,0C3.6,0,0,3.6,0,8c0,4.4,3.6,8,8,8
			c4.4,0,8-3.6,8-8C16,3.6,12.4,0,8,0z M8,15c-3.9,0-7-3.1-7-7s3.1-7,7-7s7,3.1,7,7S11.9,15,8,15z"/>
	</g>
</g>
</svg>
