<?xml version="1.0" encoding="utf-8"?>
<!-- Generator: Adobe Illustrator 18.0.0, SVG Export Plug-In . SVG Version: 6.00 Build 0)  -->
<!DOCTYPE svg PUBLIC "-//W3C//DTD SVG 1.1//EN" "http://www.w3.org/Graphics/SVG/1.1/DTD/svg11.dtd">
<svg version="1.1" id="Layer_1" xmlns="http://www.w3.org/2000/svg" xmlns:xlink="http://www.w3.org/1999/xlink" x="0px" y="0px"
	 viewBox="-116 658.1 10.5 18.5" enable-background="new -116 658.1 10.5 18.5" xml:space="preserve">
<path d="M-109.7,676.6h-2.1c-0.2,0-0.4-0.2-0.4-0.4v-1.7c-1.3-0.1-2.7-0.5-3.5-1c-0.1-0.1-0.2-0.3-0.2-0.4l0.7-2.6
	c0-0.1,0.1-0.2,0.2-0.3c0.1,0,0.2,0,0.3,0c0.6,0.3,1.9,0.9,3.4,0.9c0.4,0,1.7-0.1,1.7-1c0-0.5-0.3-1-2.1-1.5
	c-1.9-0.7-4.2-1.7-4.2-4.3c0-2,1.4-3.6,3.7-4.2v-1.8c0-0.2,0.2-0.4,0.4-0.4h2.1c0.2,0,0.4,0.2,0.4,0.4v1.6c1.1,0.1,2.1,0.3,3,0.7
	c0.2,0.1,0.2,0.3,0.2,0.4l-0.6,2.5c0,0.1-0.1,0.2-0.2,0.2c-0.1,0-0.2,0.1-0.3,0l-0.2-0.1c-0.6-0.3-1.5-0.6-2.8-0.6
	c-0.6,0-1.5,0.1-1.5,0.8c0,0.5,0.6,0.9,2.4,1.5c2.7,1,3.9,2.3,3.9,4.4c0,2.1-1.5,3.8-3.9,4.3v1.9
	C-109.4,676.4-109.5,676.6-109.7,676.6z M-111.5,675.8h1.4V674c0-0.2,0.1-0.3,0.3-0.4c2.2-0.4,3.6-1.8,3.6-3.7c0-1.8-1-2.9-3.4-3.7
	c-1.9-0.7-2.9-1.2-2.9-2.2c0-0.4,0.2-1.6,2.2-1.6c1.3,0,2.3,0.3,2.9,0.6l0.4-1.7c-0.8-0.3-1.7-0.5-2.7-0.6c-0.2,0-0.4-0.2-0.4-0.4
	v-1.5h-1.4v1.7c0,0.2-0.1,0.3-0.3,0.4c-2.1,0.4-3.4,1.7-3.4,3.5c0,1.7,1.1,2.8,3.7,3.6c1.5,0.5,2.6,1.1,2.6,2.3
	c0,1.1-0.9,1.7-2.5,1.7c-1.4,0-2.6-0.4-3.4-0.8l-0.5,1.8c0.8,0.4,2.1,0.7,3.3,0.8c0.2,0,0.4,0.2,0.4,0.4V675.8z"/>
</svg>
