<?xml version="1.0" encoding="utf-8"?>
<!-- Generator: Adobe Illustrator 18.0.0, SVG Export Plug-In . SVG Version: 6.00 Build 0)  -->
<!DOCTYPE svg PUBLIC "-//W3C//DTD SVG 1.1//EN" "http://www.w3.org/Graphics/SVG/1.1/DTD/svg11.dtd">
<svg version="1.1" id="Layer_1" xmlns="http://www.w3.org/2000/svg" xmlns:xlink="http://www.w3.org/1999/xlink" x="0px" y="0px"
	 viewBox="-404.9 509.1 15.9 15.9" enable-background="new -404.9 509.1 15.9 15.9" xml:space="preserve">
<path d="M-394.6,518.4c1.6-0.8,2.6-2.5,2.6-4.4c0-2.8-2.2-5-5-5s-5,2.2-5,5c0,1.9,1.1,3.5,2.6,4.3c-2.9,0.9-5.2,3.6-5.5,6.6h0.9h0.1
	h13.8h0.1h0.9C-389.4,522-391.6,519.3-394.6,518.4z M-401,514.1c0-2.2,1.8-4,4-4c2.2,0,4,1.8,4,4c0,2.2-1.8,4-4,4
	C-399.2,518.1-401,516.3-401,514.1z M-403.6,524c0.9-3,3.5-5,6.7-5s5.8,2,6.7,5H-403.6z"/>
</svg>
