<?xml version="1.0" encoding="utf-8"?>
<!-- Generator: Adobe Illustrator 18.0.0, SVG Export Plug-In . SVG Version: 6.00 Build 0)  -->
<!DOCTYPE svg PUBLIC "-//W3C//DTD SVG 1.1//EN" "http://www.w3.org/Graphics/SVG/1.1/DTD/svg11.dtd">
<svg version="1.1" id="Layer_1" xmlns="http://www.w3.org/2000/svg" xmlns:xlink="http://www.w3.org/1999/xlink" x="0px" y="0px"
	 viewBox="0 0 16 16" enable-background="new 0 0 16 16" xml:space="preserve">
<g>
  <path d="M12.3,6.6L9.4,6.3l-1-2.5c0,0-0.2-0.3-0.4-0.3c-0.2,0-0.3,0.3-0.3,0.3l-1,2.6L3.7,6.6c0,0-0.3,0-0.3,0.2
    c0,0.2,0.2,0.4,0.2,0.4L6,8.7l-0.9,2.9c0,0-0.1,0.3,0.1,0.4c0.1,0.1,0.4,0,0.4,0L8,10.6l2.3,1.4c0,0,0.3,0.1,0.4,0
    c0.1-0.1,0.1-0.4,0.1-0.4l-0.7-2.8L12.4,7c0,0,0.2-0.2,0.2-0.3C12.5,6.6,12.3,6.6,12.3,6.6z M8,0C3.6,0,0,3.6,0,8c0,4.4,3.6,8,8,8
    c4.4,0,8-3.6,8-8C16,3.6,12.4,0,8,0z M8,15c-3.9,0-7-3.1-7-7s3.1-7,7-7s7,3.1,7,7S11.9,15,8,15z"/>
</g>
</svg>
