<?xml version="1.0" encoding="utf-8"?>
<!-- Generator: Adobe Illustrator 18.0.0, SVG Export Plug-In . SVG Version: 6.00 Build 0)  -->
<!DOCTYPE svg PUBLIC "-//W3C//DTD SVG 1.1//EN" "http://www.w3.org/Graphics/SVG/1.1/DTD/svg11.dtd">
<svg version="1.1" id="Layer_1" xmlns="http://www.w3.org/2000/svg" xmlns:xlink="http://www.w3.org/1999/xlink" x="0px" y="0px"
	 viewBox="0 0 612 792" enable-background="new 0 0 612 792" xml:space="preserve">
<g>
	<path d="M153,281.2H38.2c-23,0-38.2,15.3-38.2,38.2v153c0,23,15.3,38.2,38.2,38.2H153l153,153h38.2V128.2H306L153,281.2z
		 M306,606.4L172.1,472.5H38.2v-153h133.9L306,185.6V606.4z"/>
	<path d="M604.4,430.4l-53.5-53.6l53.5-53.6c7.6-7.6,7.6-19.1,0-26.8l-7.7-7.6c-7.6-7.6-19.1-7.6-26.8,0l-53.5,53.5l-53.6-53.5
		c-7.6-7.6-19.1-7.6-26.8,0l-7.6,7.6c-7.6,7.6-7.6,19.1,0,26.8l53.5,53.6l-53.5,53.6c-7.6,7.6-7.6,19.1,0,26.8l7.6,7.6
		c7.6,7.6,19.1,7.6,26.8,0l53.6-53.5l53.5,53.5c7.6,7.6,19.1,7.6,26.8,0l7.7-7.6C612,449.5,612,438.1,604.4,430.4z"/>
</g>
</svg>
