<?xml version="1.0" encoding="utf-8"?>
<!-- Generator: Adobe Illustrator 18.0.0, SVG Export Plug-In . SVG Version: 6.00 Build 0)  -->
<!DOCTYPE svg PUBLIC "-//W3C//DTD SVG 1.1//EN" "http://www.w3.org/Graphics/SVG/1.1/DTD/svg11.dtd">
<svg version="1.1" id="Layer_1" xmlns="http://www.w3.org/2000/svg" xmlns:xlink="http://www.w3.org/1999/xlink" x="0px" y="0px"
	 viewBox="0 0 612 792" enable-background="new 0 0 612 792" xml:space="preserve">
<g>
	<path d="M474.5,542.6c30.6-39.3,48.1-91.8,48.1-148.6s-17.5-109.3-48.1-153c-4.4-4.4-21.9-30.6-39.3-13.1c-13.1,13.1,0,35,0,35
		c26.2,35,43.7,83.1,43.7,131.1c0,48.1-17.5,91.8-43.7,131.1c0,0-8.7,21.9,0,35C448.3,568.9,470.1,551.4,474.5,542.6z"/>
	<path d="M610,394c0-96.2-39.3-183.6-104.9-249.2c-8.7-8.7-26.2-26.2-39.3-4.4c-8.7,21.9,13.1,39.3,13.1,39.3
		c52.5,56.8,87.4,131.1,87.4,214.2s-35,157.4-87.4,214.2c0,0-26.2,21.9-8.7,39.3c13.1,13.1,30.6,0,39.3-13.1
		C570.7,573.2,610,490.2,610,394z"/>
	<path d="M153,281.2H38.2c-23,0-38.2,15.3-38.2,38.2v153c0,23,15.3,38.2,38.2,38.2H153l153,153h38.2V128.2H306L153,281.2z
		 M306,606.4L172.1,472.5H38.2v-153h133.9L306,185.6V606.4z"/>
</g>
</svg>
