<svg xmlns="http://www.w3.org/2000/svg" viewBox="0 0 612 792"><path d="M153 281.2H38.2c-23 0-38.2 15.3-38.2 38.2v153c0 23 15.3 38.2 38.2 38.2H153l153 153h38.2V128.2H306l-153 153zm153 325.2L172.1 472.5H38.2v-153h133.9L306 185.6v420.8zm298.4-176l-53.5-53.6 53.5-53.6c7.6-7.6 7.6-19.1 0-26.8l-7.7-7.6c-7.6-7.6-19.1-7.6-26.8 0l-53.5 53.5-53.6-53.5c-7.6-7.6-19.1-7.6-26.8 0l-7.6 7.6c-7.6 7.6-7.6 19.1 0 26.8l53.5 53.6-53.5 53.6c-7.6 7.6-7.6 19.1 0 26.8l7.6 7.6c7.6 7.6 19.1 7.6 26.8 0l53.6-53.5 53.5 53.5c7.6 7.6 19.1 7.6 26.8 0l7.7-7.6c7.6-7.7 7.6-19.1 0-26.8z"/></svg>